<svg id="그룹_3273" data-name="그룹 3273" xmlns="http://www.w3.org/2000/svg" xmlns:xlink="http://www.w3.org/1999/xlink" width="24.746" height="18" viewBox="0 0 24.746 18">
  <defs>
    <clipPath id="clip-path">
      <rect id="사각형_1210" data-name="사각형 1210" width="24.746" height="18" fill="#202124"/>
    </clipPath>
  </defs>
  <g id="그룹_3273-2" data-name="그룹 3273" clip-path="url(#clip-path)">
    <path id="패스_7249" data-name="패스 7249" d="M12.37,5.329A3.672,3.672,0,1,0,16.043,9,3.675,3.675,0,0,0,12.37,5.329" fill="#202124"/>
    <path id="패스_7250" data-name="패스 7250" d="M24.692,8.666A12.8,12.8,0,0,0,12.372,0,12.8,12.8,0,0,0,.054,8.666a1.057,1.057,0,0,0,0,.667A12.8,12.8,0,0,0,12.372,18a12.8,12.8,0,0,0,12.32-8.667,1.057,1.057,0,0,0,0-.667m-12.32,6.156h0a5.821,5.821,0,0,1,0-11.642h0a5.821,5.821,0,0,1,0,11.642" fill="#202124"/>
  </g>
</svg>
