<svg id="그룹_3215" data-name="그룹 3215" xmlns="http://www.w3.org/2000/svg" xmlns:xlink="http://www.w3.org/1999/xlink" width="15.884" height="10" viewBox="0 0 15.884 10">
  <defs>
    <clipPath id="clip-path">
      <rect id="사각형_1174" data-name="사각형 1174" width="15.884" height="10" fill="none"/>
    </clipPath>
  </defs>
  <g id="그룹_3213" data-name="그룹 3213" clip-path="url(#clip-path)">
    <path id="패스_7216" data-name="패스 7216" d="M.66,1.5H15.223a.66.66,0,0,0,.66-.66V.661A.66.66,0,0,0,15.223,0H.66A.66.66,0,0,0,0,.661V.838a.66.66,0,0,0,.66.66" fill="#fff"/>
    <path id="패스_7217" data-name="패스 7217" d="M.66,4.911H8.151a.66.66,0,0,0,.66-.66V4.074a.66.66,0,0,0-.66-.661H.66A.66.66,0,0,0,0,4.074v.177a.66.66,0,0,0,.66.66" fill="#fff"/>
    <path id="패스_7218" data-name="패스 7218" d="M.66,8.324H8.181a.661.661,0,0,0,.661-.66V7.487a.661.661,0,0,0-.661-.661H.66A.66.66,0,0,0,0,7.487v.177a.66.66,0,0,0,.66.66" fill="#fff"/>
    <path id="패스_7219" data-name="패스 7219" d="M10.613,10A.633.633,0,0,1,10,9.3V4.115a.634.634,0,0,1,.615-.7.8.8,0,0,1,.4.116L15.5,6.121a.64.64,0,0,1,0,1.171l-4.49,2.592a.8.8,0,0,1-.4.116" fill="#fff"/>
  </g>
</svg>
