<svg xmlns="http://www.w3.org/2000/svg" width="22" height="22" viewBox="0 0 22 22">
  <path id="패스_6524" data-name="패스 6524" d="M288.065,40.492l-.1-.047a2.374,2.374,0,0,0-.592-.376s-18.318-9.471-19.658-10-1.362.731-1.362.731-.013,5.876,0,6.983a1.146,1.146,0,0,0,1.037,1.187l14.541,1.752a.162.162,0,0,1,.143.161v.112a.163.163,0,0,1-.143.161L267.39,42.91a1.147,1.147,0,0,0-1.037,1.187c-.014,1.107,0,6.983,0,6.983s.015.859.777.859a1.619,1.619,0,0,0,.585-.123c1.34-.528,19.658-10,19.658-10a2.43,2.43,0,0,0,.592-.376l.1-.047a.494.494,0,0,0,.231-.231A.5.5,0,0,0,288.065,40.492Z" transform="translate(-266.347 -29.938)" fill="#009bff"/>
</svg>
