<svg xmlns="http://www.w3.org/2000/svg" xmlns:xlink="http://www.w3.org/1999/xlink" width="80" height="23.048" viewBox="0 0 80 23.048">
  <defs>
    <clipPath id="clip-path">
      <rect id="사각형_160" data-name="사각형 160" width="80" height="23.048" transform="translate(0 0)" fill="#202225"/>
    </clipPath>
  </defs>
  <g id="그룹_3125" data-name="그룹 3125" transform="translate(0 0)">
    <g id="그룹_3124" data-name="그룹 3124" clip-path="url(#clip-path)">
      <path id="패스_7167" data-name="패스 7167" d="M18.7,11.755a8.07,8.07,0,0,0,.758-3.589V8.1a8.16,8.16,0,0,0-.692-3.425,6.634,6.634,0,0,0-1.91-2.535A8.288,8.288,0,0,0,13.829.56,13.119,13.119,0,0,0,9.878,0H0V23.048H6.388V16.463H9.549a14.1,14.1,0,0,0,3.951-.527,8.919,8.919,0,0,0,3.161-1.58,7.2,7.2,0,0,0,2.041-2.6m-5.63-3.293a2.724,2.724,0,0,1-.988,2.206,4.065,4.065,0,0,1-2.667.79H6.388V5.367h3a4.121,4.121,0,0,1,2.7.79A2.645,2.645,0,0,1,13.072,8.4Z" fill="#202225"/>
      <path id="패스_7168" data-name="패스 7168" d="M37.081,5.6h6.914V23.048h6.388V5.6H57.3V0H37.081Z" fill="#202225"/>
      <path id="패스_7169" data-name="패스 7169" d="M73.623,0V8.736H65.4V0H59.026V23.048H65.4V14.313h8.22v8.735H80V0Z" fill="#202225"/>
      <path id="패스_7170" data-name="패스 7170" d="M32.138.062H25.492l-9.72,22.986h6.641l1.516-3.586H33.7l1.517,3.586h6.64Zm-.8,13.823H26.287l2.528-5.977Z" fill="#202225"/>
    </g>
  </g>
</svg>
