<svg xmlns="http://www.w3.org/2000/svg" xmlns:xlink="http://www.w3.org/1999/xlink" width="219.089" height="167.273" viewBox="0 0 219.089 167.273">
  <defs>
    <clipPath id="clip-path">
      <rect id="사각형_1314" data-name="사각형 1314" width="44" height="39.877" transform="translate(0 0)" fill="#b9b9b9"/>
    </clipPath>
    <clipPath id="clip-path-2">
      <rect id="사각형_1156" data-name="사각형 1156" width="30.88" height="28" fill="none"/>
    </clipPath>
    <clipPath id="clip-path-3">
      <rect id="사각형_1316" data-name="사각형 1316" width="44" height="44.012" transform="translate(0 0)" fill="#b9b9b9"/>
    </clipPath>
    <clipPath id="clip-path-4">
      <rect id="사각형_1321" data-name="사각형 1321" width="50" height="55.906" transform="translate(0 0)" fill="#b9b9b9"/>
    </clipPath>
    <clipPath id="clip-path-5">
      <rect id="사각형_1222" data-name="사각형 1222" width="20" height="13.733" fill="none"/>
    </clipPath>
    <clipPath id="clip-path-6">
      <rect id="사각형_1206" data-name="사각형 1206" width="13.316" height="16" fill="none"/>
    </clipPath>
    <clipPath id="clip-path-7">
      <rect id="사각형_1241" data-name="사각형 1241" width="13.58" height="18" fill="none"/>
    </clipPath>
    <clipPath id="clip-path-8">
      <rect id="사각형_1245" data-name="사각형 1245" width="15.315" height="17" fill="none"/>
    </clipPath>
    <clipPath id="clip-path-9">
      <rect id="사각형_1299" data-name="사각형 1299" width="14.384" height="17" fill="none"/>
    </clipPath>
    <clipPath id="clip-path-10">
      <rect id="사각형_1146" data-name="사각형 1146" width="15.351" height="13.913" transform="translate(0 0)" fill="none"/>
    </clipPath>
    <clipPath id="clip-path-11">
      <rect id="사각형_1164" data-name="사각형 1164" width="36.486" height="27.998" transform="translate(0 0)" fill="none"/>
    </clipPath>
    <clipPath id="clip-path-13">
      <rect id="사각형_1167" data-name="사각형 1167" width="26.918" height="29" fill="none"/>
    </clipPath>
    <clipPath id="clip-path-14">
      <rect id="사각형_1322" data-name="사각형 1322" width="33.042" height="28" fill="#202124"/>
    </clipPath>
    <clipPath id="clip-path-15">
      <rect id="사각형_1200" data-name="사각형 1200" width="28.857" height="22" fill="none"/>
    </clipPath>
    <clipPath id="clip-path-16">
      <rect id="사각형_1203" data-name="사각형 1203" width="16.189" height="19" fill="#202124"/>
    </clipPath>
    <clipPath id="clip-path-17">
      <rect id="사각형_1168" data-name="사각형 1168" width="8.042" height="9" fill="none"/>
    </clipPath>
    <clipPath id="clip-path-18">
      <rect id="사각형_1156-2" data-name="사각형 1156" width="30.88" height="28" fill="#202225"/>
    </clipPath>
    <clipPath id="clip-path-19">
      <rect id="사각형_1279" data-name="사각형 1279" width="36" height="33.148" transform="translate(0 0)" fill="none"/>
    </clipPath>
  </defs>
  <g id="그룹_3379" data-name="그룹 3379" transform="translate(-89 384.367)">
    <g id="그룹_3359" data-name="그룹 3359" transform="translate(89 -273)" opacity="0.6">
      <g id="그룹_3331" data-name="그룹 3331" clip-path="url(#clip-path)">
        <path id="패스_7340" data-name="패스 7340" d="M22,0C9.869,0,0,7.96,0,17.742c0,6.241,4.117,12.018,10.667,15.2a11.445,11.445,0,0,1-4.1,3.293,1.892,1.892,0,0,0,.7,3.586c.543.039,1.083.059,1.615.059a17.938,17.938,0,0,0,12.268-4.413q.422.02.854.02c12.131,0,22-7.96,22-17.742S34.131,0,22,0m0,31.7c-.5,0-.983-.03-1.464-.059a1.916,1.916,0,0,0-1.475.571,12.5,12.5,0,0,1-5.57,3.253,13.991,13.991,0,0,0,1.124-1.618c.14-.234.259-.476.373-.718L15.1,32.9a1.895,1.895,0,0,0-1.031-2.619C7.821,27.947,3.785,23.024,3.785,17.742c0-7.7,8.169-13.957,18.215-13.957s18.215,6.261,18.215,13.957S32.043,31.7,22,31.7" fill="#b9b9b9"/>
        <path id="패스_7341" data-name="패스 7341" d="M13.539,15.657A2.759,2.759,0,1,0,16.3,18.416a2.759,2.759,0,0,0-2.757-2.759" fill="#b9b9b9"/>
        <path id="패스_7342" data-name="패스 7342" d="M22,15.657a2.759,2.759,0,1,0,2.757,2.759A2.759,2.759,0,0,0,22,15.657" fill="#b9b9b9"/>
        <path id="패스_7343" data-name="패스 7343" d="M30.461,15.657a2.759,2.759,0,1,0,2.761,2.759,2.759,2.759,0,0,0-2.761-2.759" fill="#b9b9b9"/>
      </g>
    </g>
    <g id="그룹_3360" data-name="그룹 3360" transform="translate(210 -312.633)">
      <g id="그룹_3171" data-name="그룹 3171" clip-path="url(#clip-path-2)">
        <path id="패스_7188" data-name="패스 7188" d="M24.085,1.451,24.72,4.8h1.392L25.338.715a.878.878,0,0,0-1.028-.7L.717,4.486a.88.88,0,0,0-.7,1.028L3.852,25.757a.878.878,0,0,0,.418.594V20.614L1.451,5.74Z" fill="#fff"/>
        <path id="패스_7189" data-name="패스 7189" d="M30,5.638H5.987a.88.88,0,0,0-.88.879v20.6a.88.88,0,0,0,.88.88H30a.88.88,0,0,0,.88-.88V6.517A.88.88,0,0,0,30,5.638m-.489,20.639H6.475V7.006H29.511Z" fill="#fff"/>
        <path id="패스_7190" data-name="패스 7190" d="M28.729,18.929l-5.4-2.679a.811.811,0,0,0-.931-.011l-3.474,2.385-4.243-5.038a.81.81,0,0,0-1.229-.011l-6.2,5.108v6.811H28.729Z" fill="#fff"/>
        <path id="패스_7191" data-name="패스 7191" d="M23.725,12.2a1.874,1.874,0,1,0-1.874-1.874A1.874,1.874,0,0,0,23.725,12.2" fill="#fff"/>
      </g>
    </g>
    <g id="그룹_3361" data-name="그룹 3361" transform="translate(143 -273)" opacity="0.6">
      <g id="그룹_3336" data-name="그룹 3336" clip-path="url(#clip-path-3)">
        <path id="패스_7348" data-name="패스 7348" d="M22,44.011A22.007,22.007,0,0,1,6.445,6.443,22.006,22.006,0,0,1,37.566,37.564,21.871,21.871,0,0,1,22,44.011M22,3.737A18.272,18.272,0,0,0,9.084,34.925,18.271,18.271,0,0,0,34.924,9.086,18.162,18.162,0,0,0,22,3.737" fill="#b9b9b9"/>
        <path id="패스_7349" data-name="패스 7349" d="M22,35.6A13.6,13.6,0,0,1,8.4,22.01a.934.934,0,0,1,1.868,0,11.732,11.732,0,0,0,23.464,0,.934.934,0,0,1,1.869,0A13.616,13.616,0,0,1,22,35.6" fill="#b9b9b9"/>
        <path id="패스_7350" data-name="패스 7350" d="M15.621,16.652a2.8,2.8,0,1,0,2.8,2.8,2.8,2.8,0,0,0-2.8-2.8" fill="#b9b9b9"/>
        <path id="패스_7351" data-name="패스 7351" d="M28.387,16.652a2.8,2.8,0,1,0,2.8,2.8,2.8,2.8,0,0,0-2.8-2.8" fill="#b9b9b9"/>
      </g>
    </g>
    <g id="그룹_3362" data-name="그룹 3362" transform="translate(197 -273)" opacity="0.6">
      <g id="그룹_3344" data-name="그룹 3344" clip-path="url(#clip-path-4)">
        <path id="패스_7369" data-name="패스 7369" d="M26.851,51.426H5.6a1.135,1.135,0,0,1-1.12-1.12V5.6A1.135,1.135,0,0,1,5.6,4.479H26.748V14.867a2.247,2.247,0,0,0,2.24,2.24H39.38V31.16a13.933,13.933,0,0,1,4.479.745V16.429l-.009-.009a1.425,1.425,0,0,0-.5-.9L28.332.5a1.419,1.419,0,0,0-.9-.5l0,0H5.6A5.615,5.615,0,0,0,0,5.6V50.306a5.616,5.616,0,0,0,5.6,5.6H30.4a14.062,14.062,0,0,1-3.553-4.48m2.137-47.1,10.54,10.54H28.988Z" fill="#b9b9b9"/>
        <path id="패스_7370" data-name="패스 7370" d="M39.361,34.519A10.639,10.639,0,1,0,50,45.158,10.639,10.639,0,0,0,39.361,34.519m4.752,13.806a.561.561,0,0,1,0,.792l-.792.792a.561.561,0,0,1-.792,0l-3.167-3.168-3.168,3.168a.561.561,0,0,1-.792,0l-.791-.792a.56.56,0,0,1,0-.791l3.167-3.168L34.611,41.99a.561.561,0,0,1,0-.792l.791-.791a.561.561,0,0,1,.792,0l3.168,3.167,3.167-3.167a.561.561,0,0,1,.792,0l.792.791a.561.561,0,0,1,0,.792l-3.168,3.168Z" fill="#b9b9b9"/>
        <path id="패스_7371" data-name="패스 7371" d="M29.584,27.432,16.9,21.158a1.283,1.283,0,0,0-2.008,1.248V34.631a1.269,1.269,0,0,0,2,1.23l12.706-6.426c1.1-.556,1.1-1.457-.009-2" fill="#b9b9b9"/>
      </g>
    </g>
    <g id="그룹_3363" data-name="그룹 3363" transform="translate(89 -384.367)">
      <g id="그룹_3275" data-name="그룹 3275" transform="translate(0 0)" clip-path="url(#clip-path-5)">
        <path id="패스_7251" data-name="패스 7251" d="M0,1.828v9.993a1.915,1.915,0,0,0,1.917,1.911H18.086A1.915,1.915,0,0,0,20,11.822V1.914A1.915,1.915,0,0,0,18.086,0H1.357A1.915,1.915,0,0,0,0,1.828M9.72.64a.5.5,0,1,1-.5.5.5.5,0,0,1,.5-.5" transform="translate(0 -0.001)" fill="#2c3e50" fill-rule="evenodd"/>
        <rect id="사각형_1217" data-name="사각형 1217" width="18.418" height="10.041" transform="translate(0.881 2.511)" fill="#ecf0f1"/>
        <rect id="사각형_1218" data-name="사각형 1218" width="8.17" height="0.364" transform="translate(9.688 10.167)" fill="#ccc"/>
        <rect id="사각형_1219" data-name="사각형 1219" width="8.17" height="0.364" transform="translate(9.688 8.218)" fill="#ccc"/>
        <rect id="사각형_1220" data-name="사각형 1220" width="8.17" height="0.364" transform="translate(9.688 6.272)" fill="#ccc"/>
        <rect id="사각형_1221" data-name="사각형 1221" width="6.872" height="7.852" transform="translate(1.416 3.37)" fill="#dae1e6"/>
        <path id="패스_7252" data-name="패스 7252" d="M2.8,5.875c.728,0,1.569-.985,1.569-2.2s.211-2.2-1.569-2.2-1.569.985-1.569,2.2.841,2.2,1.569,2.2" transform="translate(2.055 2.485)" fill="#ccc" fill-rule="evenodd"/>
        <path id="패스_7253" data-name="패스 7253" d="M1.777,2.353H3.506l.185,1.968a.283.283,0,0,0,.278.249H4l-.222.736-2.3-.179L1.314,4.57l.064-.008a.279.279,0,0,0,.244-.249Z" transform="translate(2.204 3.945)" fill="#e3cca4" fill-rule="evenodd"/>
        <path id="패스_7254" data-name="패스 7254" d="M2.654,4.861,1.484,4.77l-.171-.557L1.377,4.2a.274.274,0,0,0,.244-.246l.11-1.389h.924Z" transform="translate(2.202 4.304)" fill="#d4c5a3" fill-rule="evenodd"/>
        <path id="패스_7255" data-name="패스 7255" d="M1.561,2.353H3.29l.142,1.491c-.035.051-.054.08-.091.128a1.215,1.215,0,0,1-.9.584,1.224,1.224,0,0,1-.9-.584c-.04-.054-.064-.094-.1-.15Z" transform="translate(2.42 3.945)" fill="#ccbc97" fill-rule="evenodd"/>
        <path id="패스_7256" data-name="패스 7256" d="M2.828,5.636a1.5,1.5,0,0,1-1.111-.648,2.282,2.282,0,0,1-.5-1.365V3.607l0-.1C1.217,2.343,1,1.4,2.828,1.4S4.44,2.343,4.44,3.508c0,.032,0,.064,0,.1l0,.005v.011a2.285,2.285,0,0,1-.5,1.365,1.5,1.5,0,0,1-1.111.648" transform="translate(2.028 2.349)" fill="#3d566e" fill-rule="evenodd"/>
        <path id="패스_7257" data-name="패스 7257" d="M4,3.71H3.458l-.782-.6-.3.2c-.961.2-1.7.621-1.7,1.272v.961a.49.49,0,0,0,.506.471H6.259a.49.49,0,0,0,.506-.471V4.578c0-.651-.739-1.076-1.7-1.274l-.292-.187Z" transform="translate(1.135 5.211)" fill="#ecf0f1" fill-rule="evenodd"/>
        <path id="패스_7258" data-name="패스 7258" d="M2.937,3.71H2.394l-.782-.6-.3.2L2.873,4.923,3,6.01h.07l-.161-1.5L4.1,3.328,4,3.3l-.292-.187Z" transform="translate(2.201 5.211)" fill="#dae1e6" fill-rule="evenodd"/>
        <path id="패스_7259" data-name="패스 7259" d="M1.742,4.582a1.482,1.482,0,0,0,1.073.648,1.472,1.472,0,0,0,1.076-.648,2.431,2.431,0,0,0,.527-1.424l-.107-.4a1.7,1.7,0,0,1-.046-.4.7.7,0,0,0-.1-.447c-.158-.2-.4-.139-.7-.059a2.581,2.581,0,0,1-.651.11,2.538,2.538,0,0,1-.645-.11h0c-.292-.08-.538-.145-.7.059a.7.7,0,0,0-.1.447,1.7,1.7,0,0,1-.046.4l-.1.4a2.411,2.411,0,0,0,.525,1.424" transform="translate(2.041 2.971)" fill="#ffe7bd" fill-rule="evenodd"/>
        <path id="패스_7260" data-name="패스 7260" d="M1.742,4.582a1.482,1.482,0,0,0,1.073.648V1.959a2.538,2.538,0,0,1-.645-.11h0c-.292-.08-.538-.145-.7.059a.7.7,0,0,0-.1.447,1.7,1.7,0,0,1-.046.4l-.1.4a2.411,2.411,0,0,0,.525,1.424" transform="translate(2.041 2.971)" fill="#e8d6ac" fill-rule="evenodd"/>
        <path id="패스_7261" data-name="패스 7261" d="M1.691,5.633h.677c-.072-.6-.145-1.076-.22-1.678a.135.135,0,0,1,.024-.088l.179-.444A.057.057,0,0,0,2.3,3.333H1.758a.062.062,0,0,0-.054.029.053.053,0,0,0,0,.059l.182.444a.15.15,0,0,1,.021.088c-.072.6-.147,1.076-.22,1.678" transform="translate(2.836 5.589)" fill="#3d566e" fill-rule="evenodd"/>
        <path id="패스_7262" data-name="패스 7262" d="M2.146,3.957a.15.15,0,0,1,.021-.088l.182-.447a.058.058,0,0,0,0-.059A.064.064,0,0,0,2.3,3.333H1.756a.073.073,0,0,0-.056.029.058.058,0,0,0,.005.059l.179.447a.152.152,0,0,1,.024.088l-.029.225.329.281Z" transform="translate(2.841 5.589)" fill="#2c3e50" fill-rule="evenodd"/>
        <path id="패스_7263" data-name="패스 7263" d="M2.666,3.71l-1.052-.6-.3.2,1.033.985Z" transform="translate(2.2 5.211)" fill="#ecf0f1" fill-rule="evenodd"/>
        <path id="패스_7264" data-name="패스 7264" d="M1.818,3.705l1.041-.594.3.187-1.02.988Z" transform="translate(3.048 5.216)" fill="#ecf0f1" fill-rule="evenodd"/>
        <path id="패스_7265" data-name="패스 7265" d="M.678,4.455v.958a.489.489,0,0,0,.5.474H3.631l-.2-.353A8.6,8.6,0,0,1,2.375,3.181c-.961.2-1.7.624-1.7,1.274M3.807,5.887H6.257a.491.491,0,0,0,.506-.474V4.455c0-.651-.739-1.076-1.7-1.274A8.431,8.431,0,0,1,4.022,5.5Z" transform="translate(1.137 5.334)" fill="#2c3e50" fill-rule="evenodd"/>
      </g>
    </g>
    <g id="그룹_3364" data-name="그룹 3364" transform="translate(119 -384.367)">
      <g id="그룹_3266" data-name="그룹 3266" clip-path="url(#clip-path-6)">
        <path id="패스_7240" data-name="패스 7240" d="M11.1,7.662V6.017a4.274,4.274,0,0,0-8.549,0V7.659a.208.208,0,0,1-.206.206H1.011a.207.207,0,0,1-.206-.206V6.013a6.016,6.016,0,0,1,12.032.006V7.662a.207.207,0,0,1-.206.206H11.3a.207.207,0,0,1-.206-.206" transform="translate(-0.161 0)" fill="#202124" fill-rule="evenodd"/>
        <path id="패스_7241" data-name="패스 7241" d="M11.98,8.979l-10.64,0A1.34,1.34,0,0,0,0,10.311l0,6.142A1.34,1.34,0,0,0,1.336,17.79l10.64,0a1.34,1.34,0,0,0,1.338-1.336l0-6.142A1.34,1.34,0,0,0,11.98,8.979" transform="translate(0 -1.795)" fill="#f39c12" fill-rule="evenodd"/>
        <path id="패스_7242" data-name="패스 7242" d="M6.661,8.953l-5.317,0A1.34,1.34,0,0,0,.007,10.287l0,6.142a1.339,1.339,0,0,0,1.336,1.336l5.32,0Z" transform="translate(-0.001 -1.79)" fill="#ffcb05" fill-rule="evenodd"/>
        <path id="패스_7243" data-name="패스 7243" d="M7.985,11.462a1.36,1.36,0,0,1,.787,2.468l0,2.129a.655.655,0,0,1-.653.653H7.845a.654.654,0,0,1-.653-.653l0-2.129a1.36,1.36,0,0,1,.79-2.468" transform="translate(-1.325 -2.292)" fill="#202124" fill-rule="evenodd"/>
      </g>
    </g>
    <g id="그룹_3365" data-name="그룹 3365" transform="translate(142.316 -384.367)">
      <path id="패스_7280" data-name="패스 7280" d="M3.875.7l.087.088L3.877.7Z" transform="translate(6.15)" fill="#dae1e6"/>
      <g id="그룹_3280" data-name="그룹 3280" transform="translate(0 0)">
        <g id="그룹_3279" data-name="그룹 3279" clip-path="url(#clip-path-7)">
          <path id="패스_7281" data-name="패스 7281" d="M12.492,18H1.088A1.091,1.091,0,0,1,0,16.912V1.088A1.091,1.091,0,0,1,1.088,0H8.86l4.72,4.72V16.912A1.091,1.091,0,0,1,12.492,18" transform="translate(0 -0.001)" fill="#dae1e6" fill-rule="evenodd"/>
          <path id="패스_7282" data-name="패스 7282" d="M6.307,1.191l1.67,1.67V6.942L3.59,2.553Z" transform="translate(5.603 1.858)" fill="#b3b3b3" fill-rule="evenodd"/>
          <path id="패스_7283" data-name="패스 7283" d="M8.18,4.72H4.548A1.091,1.091,0,0,1,3.46,3.631V0Z" transform="translate(5.4 -0.001)" fill="#ecf0f1" fill-rule="evenodd"/>
          <path id="패스_7284" data-name="패스 7284" d="M5.315,4.481l.343.348.453-.177.174.456.489.023-.028.487.435.218-.228.435.312.376-.382.307.131.471-.474.123-.074.481-.481-.079-.264.412-.407-.269-.407.269-.264-.412L4.16,8.03l-.072-.481-.474-.123.131-.471-.382-.307.31-.376-.225-.435.435-.218-.026-.487.487-.023.172-.456.456.177Zm0,.553A1.41,1.41,0,1,0,6.726,6.443,1.41,1.41,0,0,0,5.315,5.034m0,.213a1.2,1.2,0,1,0,1.2,1.2,1.2,1.2,0,0,0-1.2-1.2" transform="translate(5.251 6.993)" fill="#2c3e50" fill-rule="evenodd"/>
          <rect id="사각형_1238" data-name="사각형 1238" width="7.785" height="0.312" transform="translate(2.581 7.17)" fill="#2c3e50"/>
          <rect id="사각형_1239" data-name="사각형 1239" width="8.42" height="0.312" transform="translate(2.581 8.843)" fill="#2c3e50"/>
          <rect id="사각형_1240" data-name="사각형 1240" width="6.63" height="0.312" transform="translate(2.581 10.622)" fill="#2c3e50"/>
        </g>
      </g>
    </g>
    <g id="그룹_3366" data-name="그룹 3366" transform="translate(165.896 -384.367)">
      <g id="그룹_3285" data-name="그룹 3285" transform="translate(0 0)" clip-path="url(#clip-path-8)">
        <path id="패스_7295" data-name="패스 7295" d="M14.766,15.586V1.414A1.415,1.415,0,0,0,13.352,0H1.767A1.417,1.417,0,0,0,.353,1.414L.442,15.576A1.416,1.416,0,0,0,1.856,17h11.5a1.417,1.417,0,0,0,1.414-1.414" transform="translate(0.549 -0.001)" fill="#0044dc" fill-rule="evenodd"/>
        <path id="패스_7296" data-name="패스 7296" d="M4.306,6.056c.723,0,1.562-.977,1.562-2.183s.2-2.181-1.562-2.181-1.559.977-1.559,2.181.836,2.183,1.559,2.183" transform="translate(4.263 2.632)" fill="#fff" fill-rule="evenodd"/>
        <path id="패스_7297" data-name="패스 7297" d="M2.2,5.023v.524a.435.435,0,0,0,.432.435H7.66a.435.435,0,0,0,.432-.435V5.023c0-1.94-5.892-1.938-5.892,0" transform="translate(3.424 5.554)" fill="#fff" fill-rule="evenodd"/>
        <path id="패스_7298" data-name="패스 7298" d="M.581.574H2.345a.584.584,0,0,1,0,1.168H.581a.584.584,0,0,1,0-1.168" transform="translate(0.002 0.892)" fill="#bdbdbd" fill-rule="evenodd"/>
        <path id="패스_7299" data-name="패스 7299" d="M.581,5.637H2.345a.584.584,0,0,1,.58.583v0a.584.584,0,0,1-.58.583H.581A.584.584,0,0,1,0,6.222v0a.584.584,0,0,1,.58-.583" transform="translate(0.002 8.772)" fill="#bdbdbd" fill-rule="evenodd"/>
      </g>
    </g>
    <g id="그룹_3367" data-name="그룹 3367" transform="translate(191.211 -384.367)">
      <g id="그룹_3309" data-name="그룹 3309" clip-path="url(#clip-path-9)">
        <path id="패스_7333" data-name="패스 7333" d="M4.758,10.175a4.458,4.458,0,0,0,.869.523,5.336,5.336,0,0,0,3.138.01,1.031,1.031,0,0,0,.784-.615,6.76,6.76,0,0,0,3.225,1.213A1.671,1.671,0,0,1,14.2,12.779a16.484,16.484,0,0,1,.183,2.151c.018.488-.366.748-.754.961a8.813,8.813,0,0,1-3.1.878,24.021,24.021,0,0,1-7.007-.053,8.742,8.742,0,0,1-2.662-.774,1.308,1.308,0,0,1-.85-1.368,8.114,8.114,0,0,1,.32-2.2,1.578,1.578,0,0,1,1.214-1.046c.267-.059.534-.118.8-.168a5.519,5.519,0,0,0,2.414-.99" fill="#0044dc"/>
        <path id="패스_7334" data-name="패스 7334" d="M9.1,9.079a2.348,2.348,0,0,1-3.214.5,5.059,5.059,0,0,1-1.812-2.4.377.377,0,0,1-.018-.149c.036-.727.087-1.452.1-2.179a.872.872,0,0,0-.2-.523A.623.623,0,0,1,3.869,3.7a3.5,3.5,0,0,1,6.7.154.806.806,0,0,1-.066.375,3.054,3.054,0,0,0-.264.828,5.433,5.433,0,0,0,.119,2.02c.025.065-.057.21-.131.258a1.73,1.73,0,0,1-1.189.258A.451.451,0,0,1,8.8,7.416,1.094,1.094,0,0,0,7.4,7.1,1.025,1.025,0,0,0,6.921,8.41a1.084,1.084,0,0,0,1.3.6.556.556,0,0,1,.188-.045c.221.03.446.074.7.116" fill="#fce1b6"/>
        <path id="패스_7335" data-name="패스 7335" d="M11.156,7.17a.9.9,0,0,1-.424-.915c.017-.4-.023-.81.015-1.209a2.378,2.378,0,0,1,.243-.6c.051-.126.147-.262.131-.381A3.975,3.975,0,0,0,3.272,4.05a.445.445,0,0,0,.141.414,1.065,1.065,0,0,1,.262.592,12.26,12.26,0,0,1,.008,1.369.767.767,0,0,1-.729.8.691.691,0,0,1-.091,0A.753.753,0,0,1,2.1,6.484a.726.726,0,0,1,0-.08c-.008-.458-.024-.915.009-1.368a1.866,1.866,0,0,1,.224-.576A1.868,1.868,0,0,0,2.561,4,4.691,4.691,0,0,1,11.805,3.8a1.079,1.079,0,0,0,.331.752.792.792,0,0,1,.177.523c.024.445.011.892.007,1.337a.773.773,0,0,1-.486.763.766.766,0,0,0-.257.23A2.9,2.9,0,0,1,8.589,8.492a1.042,1.042,0,0,0-.461.029.575.575,0,0,1-.737-.3.523.523,0,0,1,.25-.7l.012-.006a.591.591,0,0,1,.784.262.529.529,0,0,0,.252.242,2.362,2.362,0,0,0,2.467-.856" fill="#202124"/>
      </g>
    </g>
    <g id="그룹_3368" data-name="그룹 3368" transform="translate(89 -357.366)">
      <g id="그룹_3161" data-name="그룹 3161" clip-path="url(#clip-path-10)">
        <path id="패스_7189-2" data-name="패스 7189" d="M7.676,0C3.444,0,0,2.778,0,6.19a6.085,6.085,0,0,0,3.722,5.3,4.008,4.008,0,0,1-1.431,1.149.66.66,0,0,0,.243,1.251c.19.013.378.02.564.02a6.257,6.257,0,0,0,4.28-1.54c.1.005.2.008.3.008,4.232,0,7.676-2.778,7.676-6.191S11.908,0,7.676,0m0,11.06c-.173,0-.343-.01-.511-.021a.668.668,0,0,0-.514.2,4.366,4.366,0,0,1-1.944,1.134,4.734,4.734,0,0,0,.392-.564c.049-.082.091-.166.131-.251l.038-.078a.661.661,0,0,0-.359-.914C2.729,9.751,1.321,8.033,1.321,6.19c0-2.684,2.85-4.869,6.355-4.869s6.355,2.185,6.355,4.869-2.851,4.87-6.355,4.87"/>
      </g>
    </g>
    <path id="패스_7372" data-name="패스 7372" d="M288.065,40.492l-.1-.047a2.374,2.374,0,0,0-.592-.376s-18.318-9.471-19.658-10-1.362.731-1.362.731-.013,5.876,0,6.983a1.146,1.146,0,0,0,1.037,1.187l14.541,1.752a.162.162,0,0,1,.143.161v.112a.163.163,0,0,1-.143.161L267.39,42.91a1.147,1.147,0,0,0-1.037,1.187c-.014,1.107,0,6.983,0,6.983s.015.859.777.859a1.619,1.619,0,0,0,.585-.123c1.34-.528,19.658-10,19.658-10a2.43,2.43,0,0,0,.592-.376l.1-.047a.494.494,0,0,0,.231-.231A.5.5,0,0,0,288.065,40.492Z" transform="translate(-87.347 -386.938)" fill="#009bff" opacity="0.2"/>
    <g id="그룹_3369" data-name="그룹 3369" transform="translate(250.88 -313.279)">
      <g id="그룹_3200" data-name="그룹 3200">
        <g id="그룹_3199" data-name="그룹 3199" clip-path="url(#clip-path-11)">
          <path id="패스_7205" data-name="패스 7205" d="M24.083,1.452,24.719,4.8h1.392L25.337.716a.879.879,0,0,0-1.025-.7h0L.715,4.487a.881.881,0,0,0-.7,1.028L3.851,25.758a.871.871,0,0,0,.417.594V20.615L1.449,5.741Z" fill="#fff"/>
        </g>
      </g>
      <g id="그룹_3202" data-name="그룹 3202">
        <g id="그룹_3201" data-name="그룹 3201" clip-path="url(#clip-path-11)">
          <path id="패스_7206" data-name="패스 7206" d="M29.51,12.534V26.277H6.474V7.006h17.51l1.368-1.368H5.986a.88.88,0,0,0-.88.879v20.6a.88.88,0,0,0,.88.88H30a.879.879,0,0,0,.879-.88V11.165Z" fill="#fff"/>
          <path id="패스_7207" data-name="패스 7207" d="M22.18,15.434a1.72,1.72,0,0,1-.2.145,1.336,1.336,0,0,1-.848-.18,1.334,1.334,0,0,1-.213-.972,1.858,1.858,0,0,1,.256-.33L31.85,3.425l-.9-.9L20.275,13.195a3.125,3.125,0,0,0-.787,1.327l-.946,3.229,2.92-.556a3.106,3.106,0,0,0,1.62-.859L34.075,5.344l-.9-.9Z" fill="#fff"/>
          <path id="패스_7208" data-name="패스 7208" d="M36.067,1.5,35.006.435a1.432,1.432,0,0,0-2.023,0l-.876.877,3.111,3.056.849-.849a1.43,1.43,0,0,0,0-2.023" fill="#fff"/>
        </g>
      </g>
    </g>
    <g id="그룹_3370" data-name="그룹 3370" transform="translate(89 -313)">
      <g id="그룹_3205" data-name="그룹 3205" clip-path="url(#clip-path-13)">
        <path id="패스_7212" data-name="패스 7212" d="M16.983,21.994a1.3,1.3,0,0,1-.916-2.212l6.415-6.413a6.316,6.316,0,1,0-8.933-8.932L2.212,15.774A1.3,1.3,0,1,1,.38,13.942L11.717,2.605a8.907,8.907,0,1,1,12.6,12.6L17.9,21.614a1.291,1.291,0,0,1-.916.38"/>
        <path id="패스_7213" data-name="패스 7213" d="M7.784,29A6.584,6.584,0,0,1,3.128,17.76l5.19-5.191A1.3,1.3,0,0,1,10.15,14.4L4.96,19.593a3.994,3.994,0,0,0,5.648,5.649L15.8,20.049a1.3,1.3,0,0,1,1.832,1.833L12.44,27.074A6.559,6.559,0,0,1,7.784,29"/>
        <path id="패스_7214" data-name="패스 7214" d="M11.15,21.873a1.3,1.3,0,0,1-.916-2.212L18.9,11a1.894,1.894,0,0,0,0-2.673,1.939,1.939,0,0,0-2.673,0L9.7,14.852A1.3,1.3,0,1,1,7.868,13.02l6.526-6.528a4.482,4.482,0,0,1,6.339,6.337l-8.667,8.664a1.289,1.289,0,0,1-.916.38"/>
      </g>
    </g>
    <g id="그룹_3371" data-name="그룹 3371" transform="translate(125.795 -313)" clip-path="url(#clip-path-14)">
      <path id="패스_7373" data-name="패스 7373" d="M31.646,28H1.4A1.4,1.4,0,0,1,0,26.6V1.4A1.4,1.4,0,0,1,1.4,0H31.646a1.4,1.4,0,0,1,1.4,1.4V26.6a1.4,1.4,0,0,1-1.4,1.4M2.793,25.208H30.249V2.792H2.793Z" fill="#202124"/>
      <path id="패스_7374" data-name="패스 7374" d="M30.729,22.957a1.39,1.39,0,0,1-.908-.335l-5.612-4.811-6.983,4.655-8.859-9.53L2.4,19.1A1.4,1.4,0,1,1,.393,17.154L8.408,8.879l9.246,9.947,6.765-4.51L31.637,20.5a1.4,1.4,0,0,1-.908,2.457" fill="#202124"/>
      <path id="패스_7375" data-name="패스 7375" d="M18.183,13.851a5.006,5.006,0,1,1,5-5.007,5.013,5.013,0,0,1-5,5.007m0-7.219a2.214,2.214,0,1,0,2.211,2.212,2.217,2.217,0,0,0-2.211-2.212" fill="#202124"/>
    </g>
    <g id="그룹_3372" data-name="그룹 3372" transform="translate(140.54 -357.367)">
      <g id="그룹_3253" data-name="그룹 3253" clip-path="url(#clip-path-15)">
        <path id="패스_7230" data-name="패스 7230" d="M24.256,20.086c0-4.7-.023-16.441-.114-16.664A1.67,1.67,0,0,0,22.612,2.4q-6.757,0-13.517,0l-.029-.8A1.662,1.662,0,0,0,7.411,0L1.663,0A1.659,1.659,0,0,0,.008,1.653L0,20.078a1.916,1.916,0,0,0,1.911,1.913L22.342,22a1.912,1.912,0,0,0,1.914-1.914" fill="#f39c12" fill-rule="evenodd"/>
        <path id="패스_7231" data-name="패스 7231" d="M6.427,5.851a2.021,2.021,0,0,0-.709.134A2.837,2.837,0,0,0,4.406,7.022a2.2,2.2,0,0,0-.326.694L1.2,18.467l-.56,2.084a1.536,1.536,0,0,0-.048.614.916.916,0,0,0,.519.719,1.3,1.3,0,0,0,.547.106L23.007,22a2.063,2.063,0,0,0,.707-.132,2.864,2.864,0,0,0,1.314-1.039,2.28,2.28,0,0,0,.326-.694L28.8,7.3a1.542,1.542,0,0,0,.044-.616.9.9,0,0,0-.515-.717,1.305,1.305,0,0,0-.547-.109q-10.676,0-21.354-.009" fill="#ffcb05" fill-rule="evenodd"/>
      </g>
    </g>
    <g id="그룹_3373" data-name="그룹 3373" transform="translate(114.351 -357.367)">
      <g id="그룹_3258" data-name="그룹 3258" clip-path="url(#clip-path-16)">
        <path id="패스_7235" data-name="패스 7235" d="M8.092,14.61a.834.834,0,0,1-.489-.159L1.758,10.2a.831.831,0,1,1,.977-1.344l5.357,3.9,5.359-3.9a.831.831,0,0,1,.977,1.344L8.581,14.451a.828.828,0,0,1-.489.159" fill="#202124"/>
        <path id="패스_7236" data-name="패스 7236" d="M8.092,14.61a.831.831,0,0,1-.831-.831V.831a.831.831,0,0,1,1.662,0V13.779a.831.831,0,0,1-.831.831" fill="#202124"/>
        <path id="패스_7237" data-name="패스 7237" d="M15.358,19H.831a.831.831,0,0,1,0-1.662H15.358a.831.831,0,0,1,0,1.662" fill="#202124"/>
        <path id="패스_7238" data-name="패스 7238" d="M15.358,19a.831.831,0,0,1-.831-.831V14.494a.831.831,0,1,1,1.662,0v3.675a.831.831,0,0,1-.831.831" fill="#202124"/>
        <path id="패스_7239" data-name="패스 7239" d="M.831,19A.831.831,0,0,1,0,18.169V14.494a.831.831,0,1,1,1.662,0v3.675A.831.831,0,0,1,.831,19" fill="#202124"/>
      </g>
    </g>
    <g id="그룹_3374" data-name="그룹 3374" transform="translate(254 -356.453)">
      <path id="패스_7300" data-name="패스 7300" d="M5.626,5.147,0,5.145l0,2.7,5.626,0L4.1,13,17.16,6.505,4.106,0Z" transform="translate(0)" fill="#e74c3c"/>
      <path id="패스_7301" data-name="패스 7301" d="M0,3.753l5.626,0L4.1,8.9,17.16,2.408,0,2.4Z" transform="translate(0 4.097)" fill="#c0392b"/>
    </g>
    <text id="_" data-name="􀆈" transform="translate(258 -328)" fill="#fff" font-size="7" font-family="LastResort, '\.LastResort'"><tspan x="-4.016" y="0">􀆈</tspan></text>
    <g id="그룹_3375" data-name="그룹 3375" transform="translate(281 -356.88)">
      <g id="그룹_3207" data-name="그룹 3207" clip-path="url(#clip-path-17)">
        <path id="패스_7215" data-name="패스 7215" d="M.84,9A.867.867,0,0,1,0,8.042V.959A.867.867,0,0,1,.84,0a1.086,1.086,0,0,1,.545.159L7.52,3.7a.94.94,0,0,1,.523.8.94.94,0,0,1-.523.8L1.385,8.842A1.084,1.084,0,0,1,.84,9" fill="#fff"/>
      </g>
    </g>
    <g id="그룹_3376" data-name="그룹 3376" transform="translate(168.837 -298)">
      <g id="그룹_3171-2" data-name="그룹 3171" transform="translate(0 -15)" clip-path="url(#clip-path-18)">
        <path id="패스_7188-2" data-name="패스 7188" d="M24.085,1.451,24.72,4.8h1.392L25.338.715a.878.878,0,0,0-1.028-.7L.717,4.486a.88.88,0,0,0-.7,1.028L3.852,25.757a.878.878,0,0,0,.418.594V20.614L1.451,5.74Z" fill="#202225"/>
        <path id="패스_7189-3" data-name="패스 7189" d="M30,5.638H5.987a.88.88,0,0,0-.88.879v20.6a.88.88,0,0,0,.88.88H30a.88.88,0,0,0,.88-.88V6.517A.88.88,0,0,0,30,5.638m-.489,20.639H6.475V7.006H29.511Z" fill="#202225"/>
        <path id="패스_7190-2" data-name="패스 7190" d="M28.729,18.929l-5.4-2.679a.811.811,0,0,0-.931-.011l-3.474,2.385-4.243-5.038a.81.81,0,0,0-1.229-.011l-6.2,5.108v6.811H28.729Z" fill="#202225"/>
        <path id="패스_7191-2" data-name="패스 7191" d="M23.725,12.2a1.874,1.874,0,1,0-1.874-1.874A1.874,1.874,0,0,0,23.725,12.2" fill="#202225"/>
      </g>
    </g>
    <g id="그룹_3377" data-name="그룹 3377" transform="translate(208.403 -357.028)">
      <g id="그룹_3302" data-name="그룹 3302" clip-path="url(#clip-path-19)">
        <path id="패스_7304" data-name="패스 7304" d="M1.64,6.7,26.354.075a2.22,2.22,0,0,1,2.712,1.568l3.72,13.887a2.216,2.216,0,0,1-1.566,2.709L6.507,24.863A2.216,2.216,0,0,1,3.8,23.3L.076,9.41A2.215,2.215,0,0,1,1.64,6.7" fill="#ecf0f1" fill-rule="evenodd"/>
        <rect id="사각형_1277" data-name="사각형 1277" width="30.011" height="4.385" transform="matrix(0.966, -0.259, 0.259, 0.966, 0.358, 10.464)" fill="#2c3e50"/>
        <path id="패스_7305" data-name="패스 7305" d="M8.2,14.346H33.79A2.215,2.215,0,0,1,36,16.559V30.937a2.215,2.215,0,0,1-2.21,2.211H8.2A2.217,2.217,0,0,1,5.99,30.937V16.559A2.217,2.217,0,0,1,8.2,14.346" fill="#7f8c8d" fill-rule="evenodd"/>
        <path id="패스_7306" data-name="패스 7306" d="M32.37,14.346h1.419A2.215,2.215,0,0,1,36,16.559V30.937a2.215,2.215,0,0,1-2.211,2.211H8.2A2.217,2.217,0,0,1,5.99,30.937V28.166c8.786-1.564,18.839-7.414,26.38-13.82" fill="#95a5a6" fill-rule="evenodd"/>
        <path id="패스_7307" data-name="패스 7307" d="M36,22.658v8.279a2.216,2.216,0,0,1-2.211,2.211H8.2a2.216,2.216,0,0,1-2.2-1.932C16.4,30.315,27.243,27.567,36,22.658" fill="#bdc3c7" fill-rule="evenodd"/>
        <path id="패스_7308" data-name="패스 7308" d="M33.249,20.785V17.856a.341.341,0,0,0-.342-.341H26.361a.341.341,0,0,0-.34.341v2.929a.338.338,0,0,0,.34.339h6.546a.342.342,0,0,0,.342-.339" fill="#ecf0f1" fill-rule="evenodd"/>
        <path id="패스_7309" data-name="패스 7309" d="M9.667,29.657h4.487a.342.342,0,0,0,.339-.342v-.679a.341.341,0,0,0-.339-.34H9.667a.344.344,0,0,0-.342.34v.679a.344.344,0,0,0,.342.342" fill="#ecf0f1" fill-rule="evenodd"/>
        <path id="패스_7310" data-name="패스 7310" d="M15.918,29.657h4.488a.342.342,0,0,0,.338-.342v-.679a.341.341,0,0,0-.338-.34H15.918a.343.343,0,0,0-.342.34v.679a.343.343,0,0,0,.342.342" fill="#ecf0f1" fill-rule="evenodd"/>
        <path id="패스_7311" data-name="패스 7311" d="M22.17,29.657h4.485A.342.342,0,0,0,27,29.315v-.679a.342.342,0,0,0-.341-.34H22.17a.343.343,0,0,0-.342.34v.679a.343.343,0,0,0,.342.342" fill="#ecf0f1" fill-rule="evenodd"/>
        <path id="패스_7312" data-name="패스 7312" d="M28.42,29.657h4.486a.344.344,0,0,0,.342-.342v-.679a.342.342,0,0,0-.342-.34H28.42a.341.341,0,0,0-.34.34v.679a.343.343,0,0,0,.34.342" fill="#ecf0f1" fill-rule="evenodd"/>
        <path id="사각형_1278" data-name="사각형 1278" d="M.661,0H4.773a.661.661,0,0,1,.661.661V3.8a.661.661,0,0,1-.661.661H.663A.663.663,0,0,1,0,3.8V.661A.661.661,0,0,1,.661,0Z" transform="translate(9.325 19.783)" fill="#ffcb05"/>
      </g>
    </g>
    <g id="그룹_3378" data-name="그룹 3378" transform="translate(131.043 -712.028)">
      <g id="그룹_3086" data-name="그룹 3086" transform="translate(167 355)">
        <g id="그룹_3085" data-name="그룹 3085" transform="translate(0)">
          <g id="그룹_3084" data-name="그룹 3084">
            <g id="그룹_3082" data-name="그룹 3082">
              <path id="패스_7143" data-name="패스 7143" d="M786.521,2041.8a1,1,0,0,1-.711-.294l-3.891-3.895a1.006,1.006,0,0,1,0-1.423l3.891-3.894a1.006,1.006,0,0,1,1.423,1.423l-3.18,3.183,3.18,3.183a1.006,1.006,0,0,1-.711,1.718Z" transform="translate(-781.624 -2032.001)" fill="#fff"/>
            </g>
            <g id="그룹_3083" data-name="그룹 3083" transform="translate(1.059 3.894)">
              <path id="패스_7144" data-name="패스 7144" d="M790.66,2037.889h-6.975a1.006,1.006,0,1,1,0-2.012h6.975a1.006,1.006,0,0,1,0,2.012Z" transform="translate(-782.678 -2035.877)" fill="#fff"/>
            </g>
          </g>
        </g>
      </g>
    </g>
  </g>
</svg>
