<svg id="그룹_2" data-name="그룹 2" xmlns="http://www.w3.org/2000/svg" xmlns:xlink="http://www.w3.org/1999/xlink" width="180" height="51.859" viewBox="0 0 180 51.859">
  <defs>
    <clipPath id="clip-path">
      <rect id="사각형_2" data-name="사각형 2" width="180" height="51.859" fill="#fff"/>
    </clipPath>
  </defs>
  <g id="그룹_1" data-name="그룹 1" clip-path="url(#clip-path)">
    <path id="패스_1" data-name="패스 1" d="M42.08,26.448a18.158,18.158,0,0,0,1.7-8.075v-.148a18.35,18.35,0,0,0-1.556-7.7,14.925,14.925,0,0,0-4.3-5.7,18.66,18.66,0,0,0-6.815-3.556A29.52,29.52,0,0,0,22.225,0H0V51.859H14.372V37.042h7.112a31.716,31.716,0,0,0,8.89-1.186A20.059,20.059,0,0,0,37.486,32.3a16.166,16.166,0,0,0,4.593-5.853M29.411,19.04A6.13,6.13,0,0,1,27.189,24a9.153,9.153,0,0,1-6,1.778H14.372V12.076h6.742a9.28,9.28,0,0,1,6.075,1.778,5.954,5.954,0,0,1,2.223,5.038Z" fill="#fff"/>
    <path id="패스_2" data-name="패스 2" d="M265.456,12.594h15.557V51.858h14.373V12.594h15.557V0H265.456Z" transform="translate(-182.026 0)" fill="#fff"/>
    <path id="패스_3" data-name="패스 3" d="M455.4,0V19.655h-18.5V0H422.559V51.859h14.347V32.2h18.5V51.859H469.75V0Z" transform="translate(-289.75)" fill="#fff"/>
    <path id="패스_4" data-name="패스 4" d="M149.733.445H134.778l-21.87,51.718h14.942l3.412-8.069h21.985l3.413,8.069H171.6Zm-1.79,31.1H136.569L142.255,18.1Z" transform="translate(-77.422 -0.305)" fill="#fff"/>
  </g>
</svg>
