<svg width="30" height="6" viewBox="0 0 30 6" fill="none" xmlns="http://www.w3.org/2000/svg">
<path d="M4.99985 5.99985C4.86841 6.00351 4.73774 5.97858 4.61688 5.92679C4.49602 5.87499 4.38785 5.79756 4.29985 5.69985L0.29985 1.69985C0.205094 1.60954 0.12966 1.50093 0.0781178 1.38061C0.0265761 1.26028 0 1.13075 0 0.99985C0 0.868951 0.0265761 0.739415 0.0781178 0.619091C0.12966 0.498767 0.205094 0.390159 0.29985 0.29985C0.390159 0.205094 0.498767 0.12966 0.619091 0.0781178C0.739415 0.0265761 0.868951 0 0.99985 0C1.13075 0 1.26028 0.0265761 1.38061 0.0781178C1.50093 0.12966 1.60954 0.205094 1.69985 0.29985L4.99985 3.59985L8.29985 0.29985C8.39016 0.205094 8.49877 0.12966 8.61909 0.0781178C8.73942 0.0265761 8.86895 0 8.99985 0C9.13075 0 9.26029 0.0265761 9.38061 0.0781178C9.50093 0.12966 9.60954 0.205094 9.69985 0.29985C9.79461 0.390159 9.87004 0.498767 9.92158 0.619091C9.97312 0.739415 9.9997 0.868951 9.9997 0.99985C9.9997 1.13075 9.97312 1.26028 9.92158 1.38061C9.87004 1.50093 9.79461 1.60954 9.69985 1.69985L5.69985 5.69985C5.61185 5.79756 5.50368 5.87499 5.38282 5.92679C5.26196 5.97858 5.13129 6.00351 4.99985 5.99985V5.99985Z" fill="#B9B9B9"/>
<rect x="-0.5" y="-1.5" width="38" height="9" stroke="black"/>
</svg>
