<svg xmlns="http://www.w3.org/2000/svg" width="43.403" height="19" viewBox="0 0 43.403 19">
  <g id="그룹_3380" data-name="그룹 3380" transform="translate(-544 -389)">
    <path id="Tail" d="M19.2,19H4.2V10A13.908,13.908,0,0,0,3.074,4.484,13.953,13.953,0,0,0,0,0H.2A18.88,18.88,0,0,1,7.6,1.493a18.937,18.937,0,0,1,6.039,4.072A18.937,18.937,0,0,1,17.708,11.6,18.88,18.88,0,0,1,19.2,19Z" transform="translate(544 389)" fill="#f6f8f9"/>
    <path id="Tail-2" data-name="Tail" d="M.2,19H0a13.952,13.952,0,0,0,3.074-4.484A13.907,13.907,0,0,0,4.2,9V0h15a18.879,18.879,0,0,1-1.493,7.4,18.938,18.938,0,0,1-4.072,6.039A18.938,18.938,0,0,1,7.6,17.507,18.88,18.88,0,0,1,.2,19Z" transform="translate(587.403 408) rotate(180)" fill="#009bff"/>
  </g>
</svg>
