<svg xmlns="http://www.w3.org/2000/svg" width="7.4" height="7.219" viewBox="0 0 7.4 7.219">
  <g id="그룹_3087" data-name="그룹 3087" transform="translate(-167 -355)">
    <g id="그룹_3086" data-name="그룹 3086" transform="translate(167 355)">
      <g id="그룹_3085" data-name="그룹 3085" transform="translate(0)">
        <g id="그룹_3084" data-name="그룹 3084">
          <g id="그룹_3082" data-name="그룹 3082">
            <path id="패스_7143" data-name="패스 7143" d="M785.231,2039.219a.74.74,0,0,1-.524-.217l-2.866-2.869a.741.741,0,0,1,0-1.048l2.866-2.868a.741.741,0,0,1,1.048,1.048l-2.342,2.344,2.342,2.344a.741.741,0,0,1-.524,1.265Z" transform="translate(-781.624 -2032.001)" fill="#202124"/>
          </g>
          <g id="그룹_3083" data-name="그룹 3083" transform="translate(0.78 2.868)">
            <path id="패스_7144" data-name="패스 7144" d="M788.557,2037.359h-5.138a.741.741,0,1,1,0-1.482h5.138a.741.741,0,0,1,0,1.482Z" transform="translate(-782.678 -2035.877)" fill="#202124"/>
          </g>
        </g>
      </g>
    </g>
  </g>
</svg>
