<svg xmlns="http://www.w3.org/2000/svg" width="20" height="20" viewBox="0 0 20 20">
  <path id="패스_6510" data-name="패스 6510" d="M-172.136-59.811a.758.758,0,0,0,.5-.846,5.2,5.2,0,0,0-.347-1.275,2.534,2.534,0,0,0-.555-.883.707.707,0,0,0-.784-.14,2.763,2.763,0,0,1-1.229.283,2.049,2.049,0,0,1-2.046-1.511,2.264,2.264,0,0,1,.1-1.556.726.726,0,0,0,.086-.541,1.261,1.261,0,0,0-.244-.394,3.179,3.179,0,0,0-2.136-.971.516.516,0,0,0-.4.09,1.2,1.2,0,0,0-.383.482,2.314,2.314,0,0,1-.8,1.022,2.185,2.185,0,0,1-2.451.082,2.523,2.523,0,0,1-.929-1.163.681.681,0,0,0-.819-.508,4.229,4.229,0,0,0-1.778.6,1.252,1.252,0,0,0-.551.582.566.566,0,0,0-.033.315A5.374,5.374,0,0,1-186.791-65c-.013.12-.024.331-.06.538a1.928,1.928,0,0,1-.337.909,2.13,2.13,0,0,1-1.988.8,3.432,3.432,0,0,1-.8-.2.743.743,0,0,0-.9.263c-.015.018-.03.037-.045.056a3.75,3.75,0,0,0-.627,1.383,1.793,1.793,0,0,0-.061.8.821.821,0,0,0,.519.663,2.936,2.936,0,0,1,1.03.734,1.909,1.909,0,0,1,.232,2.41,2.938,2.938,0,0,1-1.362,1.112.585.585,0,0,0-.369.395,1.337,1.337,0,0,0-.06.441,3.861,3.861,0,0,0,.724,1.965.871.871,0,0,0,1.018.337,3.3,3.3,0,0,1,1.307-.145,1.669,1.669,0,0,1,.986.364,1.96,1.96,0,0,1,.685,1.472,2.442,2.442,0,0,1-.227,1.037,1.436,1.436,0,0,0-.119.469.754.754,0,0,0,.329.605,3.739,3.739,0,0,0,1.294.713,2.88,2.88,0,0,0,1.1.223.763.763,0,0,0,.733-.492,2.7,2.7,0,0,1,.808-1.109,2.027,2.027,0,0,1,1.81-.447,2.06,2.06,0,0,1,1.23.835,7.155,7.155,0,0,1,.473.814.7.7,0,0,0,.748.4,4.213,4.213,0,0,0,.55-.1,3.688,3.688,0,0,0,1.511-.77.8.8,0,0,0,.2-.966,2.5,2.5,0,0,1-.223-.967,2.132,2.132,0,0,1,.7-1.676,1.9,1.9,0,0,1,1.167-.419,3.161,3.161,0,0,1,1.234.16,1.225,1.225,0,0,0,.308.061,1.069,1.069,0,0,0,.883-.432,3.389,3.389,0,0,0,.707-1.744.878.878,0,0,0-.218-.8,1.616,1.616,0,0,0-.464-.321,2.154,2.154,0,0,1-1.275-2.541A2.348,2.348,0,0,1-172.136-59.811ZM-181.665-53a4.691,4.691,0,0,1-4.641-4.715,4.675,4.675,0,0,1,4.668-4.631,4.664,4.664,0,0,1,4.662,4.7A4.676,4.676,0,0,1-181.665-53Z" transform="translate(191.624 67.652)" fill="#fff"/>
</svg>
